<svg width="220" height="50" viewBox="0 0 220 50" xmlns="http://www.w3.org/2000/svg">
  <!-- Pin -->
  <g transform="translate(4,2)">
    <path d="M18 0C10 0 3 7.5 3 15c0 9 15 22 15 22s15-13 15-22C33 7.5 26 0 18 0z" fill="#F26522"/>
    <!-- Terra -->
    <path d="M8 16c4-5 15-5 19 0 2 2.5-1.5 7.5-7.5 9-6-1.5-10-7-7.5-9z" fill="#2E7D32"/>
    <!-- Folha -->
    <path d="M18 9c-4 4-4 11 0 13 4-2 4-9 0-13z" fill="#ffffff"/>
    <path d="M18 15c-1.5 1.5-1.5 4.5 0 6" stroke="#2E7D32" stroke-width="1.2" fill="none"/>
  </g>

  <!-- Texto -->
  <text x="48" y="22" font-size="17" font-weight="700" fill="#1d2340" font-family="Arial, sans-serif">
    Disk Denúncias
  </text>
  <text x="48" y="40" font-size="14" font-weight="600" fill="#F26522" font-family="Arial, sans-serif">
    Ambientais
  </text>
</svg>

